<svg xmlns="http://www.w3.org/2000/svg" viewBox="0 0 100 40" fill="currentColor" aria-label="IBM">
  
  <g>
    
    <rect x="4" y="6" width="20" height="3"></rect>
    <rect x="4" y="12" width="20" height="3"></rect>
    <rect x="4" y="18" width="20" height="3"></rect>
    <rect x="4" y="24" width="20" height="3"></rect>
    <rect x="4" y="30" width="20" height="3"></rect>
    
    <rect x="32" y="6" width="28" height="3"></rect>
    <rect x="32" y="12" width="28" height="3"></rect>
    <rect x="32" y="18" width="28" height="3"></rect>
    <rect x="32" y="24" width="28" height="3"></rect>
    <rect x="32" y="30" width="28" height="3"></rect>
    
    <rect x="68" y="6" width="28" height="3"></rect>
    <rect x="68" y="12" width="28" height="3"></rect>
    <rect x="68" y="18" width="28" height="3"></rect>
    <rect x="68" y="24" width="28" height="3"></rect>
    <rect x="68" y="30" width="28" height="3"></rect>
    
    <rect x="10" y="6" width="8" height="27" fill="#fff"></rect>
    <rect x="38" y="9" width="16" height="3" fill="#fff"></rect>
    <rect x="38" y="15" width="16" height="3" fill="#fff"></rect>
    <rect x="38" y="21" width="16" height="3" fill="#fff"></rect>
    <rect x="38" y="27" width="16" height="3" fill="#fff"></rect>
    <rect x="74" y="9" width="4" height="21" fill="#fff"></rect>
    <rect x="80" y="9" width="4" height="3" fill="#fff"></rect>
    <rect x="86" y="9" width="4" height="21" fill="#fff"></rect>
    <rect x="80" y="21" width="4" height="9" fill="#fff"></rect>
  </g>
</svg>